<svg id="svg" version="1.1" width="500" height="501" xmlns="http://www.w3.org/2000/svg" xmlns:xlink="http://www.w3.org/1999/xlink" style="display: block;"><g id="svgg"><path id="path0" d="M47.200 23.600 L 47.200 47.200 23.600 47.200 L 0.000 47.200 0.000 80.800 L 0.000 114.400 23.600 114.400 L 47.200 114.400 47.200 139.209 L 47.200 164.017 81.000 163.809 L 114.800 163.600 115.012 139.000 L 115.223 114.400 139.612 114.400 L 164.000 114.400 164.000 80.800 L 164.000 47.200 139.600 47.200 L 115.200 47.200 115.200 23.600 L 115.200 0.000 81.200 0.000 L 47.200 0.000 47.200 23.600 M283.200 23.600 L 283.200 47.200 259.298 47.200 C 240.067 47.200,235.219 47.414,234.489 48.293 C 233.838 49.077,233.641 58.509,233.791 81.693 L 234.000 114.000 258.600 114.212 L 283.200 114.423 283.200 139.212 L 283.200 164.000 317.200 164.000 L 351.200 164.000 351.200 139.200 L 351.200 114.400 375.600 114.400 L 400.000 114.400 400.000 80.800 L 400.000 47.200 375.600 47.200 L 351.200 47.200 351.200 23.600 L 351.200 0.000 317.200 0.000 L 283.200 0.000 283.200 23.600 M90.161 58.753 C 114.389 70.033,106.348 106.004,79.600 105.995 C 53.117 105.986,44.824 71.602,68.324 59.240 C 74.569 55.955,83.713 55.751,90.161 58.753 M329.200 58.804 C 353.019 70.438,344.524 105.999,317.929 105.983 C 297.713 105.970,285.705 83.202,297.475 67.200 C 304.495 57.657,318.995 53.819,329.200 58.804 M189.607 147.739 C 188.071 147.954,186.631 148.393,186.407 148.715 C 186.183 149.036,183.930 149.752,181.400 150.307 C 178.870 150.861,176.800 151.591,176.800 151.929 C 176.800 152.267,175.322 153.032,173.515 153.628 C 171.708 154.224,170.050 155.182,169.829 155.756 C 169.609 156.330,169.075 156.800,168.642 156.800 C 167.665 156.800,159.200 163.970,159.200 164.797 C 159.200 165.128,157.957 166.756,156.438 168.414 C 154.920 170.072,153.451 172.457,153.175 173.714 C 152.899 174.971,152.356 176.000,151.969 176.000 C 151.581 176.000,150.817 177.530,150.271 179.400 C 149.725 181.270,149.011 182.988,148.686 183.218 C 145.913 185.177,145.953 213.718,148.734 217.138 C 149.119 217.612,149.889 219.530,150.444 221.400 C 150.999 223.270,151.668 224.800,151.931 224.800 C 152.194 224.800,152.927 225.970,153.560 227.400 C 154.977 230.602,155.236 230.933,161.288 237.276 C 168.475 244.809,176.200 249.502,183.600 250.833 C 185.360 251.150,187.294 251.802,187.898 252.284 C 189.342 253.434,209.016 253.458,210.502 252.311 C 211.106 251.846,213.670 251.019,216.200 250.475 C 218.730 249.931,220.800 249.208,220.800 248.869 C 220.800 248.530,222.240 247.822,224.000 247.295 C 225.760 246.767,227.200 245.990,227.200 245.568 C 227.200 245.146,227.727 244.800,228.371 244.800 C 231.553 244.800,245.588 228.715,246.873 223.595 C 247.148 222.498,247.669 221.600,248.029 221.600 C 248.390 221.600,249.131 219.530,249.675 217.000 C 250.219 214.470,250.919 212.040,251.230 211.600 C 253.841 207.905,251.347 181.345,248.197 179.297 C 247.776 179.024,246.992 177.450,246.454 175.800 C 245.916 174.150,245.232 172.800,244.933 172.800 C 244.635 172.800,243.951 171.810,243.415 170.600 C 240.266 163.501,224.415 151.433,216.275 149.935 C 214.584 149.624,212.976 149.025,212.703 148.605 C 212.165 147.776,194.164 147.101,189.607 147.739 M197.314 176.753 C 213.426 184.538,208.627 208.117,190.962 207.964 C 184.224 207.906,179.082 204.590,176.074 198.363 C 169.825 185.430,184.458 170.542,197.314 176.753 M20.543 249.000 C 19.288 249.922,19.197 253.010,19.390 288.400 L 19.600 326.800 38.800 327.016 L 58.000 327.232 59.993 330.216 C 61.089 331.857,62.190 333.380,62.439 333.600 C 62.689 333.820,63.412 334.759,64.046 335.686 C 65.379 337.632,72.878 346.307,76.400 349.976 C 80.046 353.774,92.223 364.391,94.864 366.074 C 96.149 366.893,97.380 367.760,97.600 368.002 C 97.939 368.373,104.155 372.506,112.000 377.575 C 115.516 379.847,135.926 389.600,137.165 389.600 C 137.452 389.600,139.198 390.279,141.044 391.109 C 142.890 391.940,145.660 392.881,147.200 393.202 C 148.740 393.522,150.360 394.069,150.800 394.417 C 151.240 394.765,153.940 395.473,156.800 395.992 C 159.660 396.510,162.720 397.243,163.600 397.620 C 172.357 401.380,227.116 401.401,234.239 397.648 C 234.987 397.253,238.210 396.508,241.400 395.993 C 244.590 395.477,247.200 394.802,247.200 394.492 C 247.200 394.183,249.360 393.451,252.000 392.865 C 254.640 392.279,256.800 391.530,256.800 391.200 C 256.800 390.870,257.909 390.378,259.264 390.107 C 264.394 389.081,288.216 377.323,292.063 373.918 C 292.758 373.303,293.573 372.800,293.876 372.800 C 295.668 372.800,313.531 358.469,320.800 351.200 C 327.285 344.715,340.000 329.278,340.000 327.890 C 340.000 327.510,348.640 327.200,359.200 327.200 L 378.400 327.200 378.400 288.015 L 378.400 248.830 376.600 248.392 C 375.610 248.150,362.920 248.054,348.400 248.177 L 322.000 248.400 321.777 259.000 L 321.554 269.600 199.577 269.600 L 77.600 269.600 77.600 259.286 C 77.600 250.618,77.398 248.894,76.335 248.486 C 73.692 247.472,21.976 247.948,20.543 249.000 M163.200 326.000 C 164.057 327.032,168.974 327.200,198.412 327.200 C 228.089 327.200,232.690 327.041,233.089 326.000 C 233.744 324.295,264.110 324.204,265.520 325.904 C 266.155 326.668,266.369 331.646,266.218 342.104 L 266.000 357.200 249.400 357.416 L 232.800 357.632 232.800 348.125 L 232.800 338.618 228.600 339.380 C 226.290 339.799,224.039 340.440,223.598 340.805 C 220.112 343.685,178.407 343.705,174.802 340.827 C 173.968 340.162,166.390 338.400,164.361 338.400 C 163.411 338.400,163.200 340.147,163.200 348.016 L 163.200 357.632 146.600 357.416 L 130.000 357.200 129.782 342.104 C 129.631 331.646,129.845 326.668,130.480 325.904 C 131.883 324.213,161.790 324.301,163.200 326.000 " stroke="none" fill="#000000" fill-rule="evenodd"></path><path id="path1" d="M68.600 58.858 C 65.498 60.540,65.850 61.121,69.000 59.519 C 72.016 57.985,72.549 57.588,71.533 57.632 C 71.130 57.650,69.810 58.201,68.600 58.858 M90.000 59.347 C 94.679 61.799,96.848 63.673,99.782 67.799 C 101.222 69.824,102.400 71.108,102.400 70.651 C 102.400 67.516,90.819 57.446,87.432 57.635 C 87.084 57.655,88.240 58.425,90.000 59.347 M328.768 59.348 C 339.499 64.725,345.506 79.019,341.281 89.129 C 340.565 90.843,340.119 92.385,340.289 92.556 C 342.263 94.530,343.932 79.869,342.373 74.255 C 340.602 67.878,332.756 59.512,327.200 58.077 C 326.100 57.793,326.805 58.365,328.768 59.348 M301.591 62.625 C 298.669 65.207,294.893 70.360,295.488 70.955 C 295.770 71.236,296.000 71.076,296.000 70.598 C 296.000 70.120,297.836 67.720,300.080 65.264 C 304.413 60.524,304.866 59.732,301.591 62.625 M59.371 66.545 C 57.957 68.385,56.800 70.239,56.800 70.665 C 56.800 71.339,60.154 67.079,61.891 64.200 C 63.151 62.112,61.843 63.330,59.371 66.545 M55.292 74.479 C 54.278 77.388,54.194 85.202,55.151 87.600 C 55.510 88.500,55.616 86.691,55.392 83.470 C 55.163 80.168,55.379 76.637,55.901 75.140 C 56.399 73.710,56.667 72.401,56.496 72.229 C 56.325 72.058,55.783 73.070,55.292 74.479 M102.877 73.200 C 105.617 81.957,103.142 92.134,96.707 98.569 C 94.582 100.695,93.521 102.070,94.351 101.626 C 101.957 97.555,107.273 81.595,103.552 74.000 C 102.905 72.680,102.601 72.320,102.877 73.200 M293.313 76.168 C 293.043 77.176,292.868 79.800,292.925 82.000 C 293.018 85.658,293.077 85.521,293.612 80.400 C 294.227 74.504,294.129 73.120,293.313 76.168 M294.434 89.600 C 294.403 90.939,297.290 96.000,298.086 96.000 C 298.367 96.000,298.202 95.525,297.720 94.945 C 297.239 94.365,296.309 92.655,295.654 91.145 C 294.999 89.635,294.450 88.940,294.434 89.600 M56.013 90.000 C 55.981 93.755,67.016 104.826,70.757 104.792 C 71.220 104.788,69.800 103.747,67.600 102.478 C 62.893 99.762,60.856 97.694,58.069 92.800 C 56.942 90.820,56.016 89.560,56.013 90.000 M336.049 97.836 C 332.687 101.778,332.658 101.851,335.514 99.200 C 338.045 96.851,340.637 93.508,339.828 93.636 C 339.703 93.656,338.002 95.546,336.049 97.836 M300.003 98.673 C 301.101 99.924,302.720 101.318,303.600 101.771 C 305.284 102.639,305.235 102.587,300.803 98.794 L 298.006 96.400 300.003 98.673 M328.800 103.200 C 327.260 104.043,326.288 104.748,326.640 104.766 C 327.487 104.811,332.000 102.465,332.000 101.979 C 332.000 101.456,331.953 101.474,328.800 103.200 M77.811 106.174 C 79.027 106.358,80.827 106.353,81.811 106.163 C 82.795 105.973,81.800 105.823,79.600 105.829 C 77.400 105.835,76.595 105.990,77.811 106.174 M316.200 106.173 C 317.410 106.356,319.390 106.356,320.600 106.173 C 321.810 105.990,320.820 105.840,318.400 105.840 C 315.980 105.840,314.990 105.990,316.200 106.173 M265.935 341.600 C 265.935 350.180,266.053 353.690,266.196 349.400 C 266.340 345.110,266.340 338.090,266.196 333.800 C 266.053 329.510,265.935 333.020,265.935 341.600 " stroke="none" fill="#370200" fill-rule="evenodd"></path><path id="path2" d="M77.414 57.380 C 78.852 57.558,81.012 57.554,82.214 57.372 C 83.416 57.189,82.240 57.043,79.600 57.048 C 76.960 57.052,75.976 57.202,77.414 57.380 M315.814 57.380 C 317.252 57.558,319.412 57.554,320.614 57.372 C 321.816 57.189,320.640 57.043,318.000 57.048 C 315.360 57.052,314.376 57.202,315.814 57.380 M96.728 64.666 C 97.160 65.472,98.141 66.642,98.909 67.266 C 99.773 67.968,99.580 67.409,98.402 65.800 C 96.301 62.930,95.513 62.396,96.728 64.666 M295.517 71.674 C 294.857 73.255,294.427 74.880,294.561 75.284 C 294.696 75.688,295.390 74.394,296.104 72.409 C 297.649 68.111,297.227 67.582,295.517 71.674 M103.456 81.600 C 103.456 84.460,103.601 85.630,103.779 84.200 C 103.956 82.770,103.956 80.430,103.779 79.000 C 103.601 77.570,103.456 78.740,103.456 81.600 M293.856 81.600 C 293.856 84.460,294.001 85.630,294.179 84.200 C 294.356 82.770,294.356 80.430,294.179 79.000 C 294.001 77.570,293.856 78.740,293.856 81.600 M295.210 90.110 C 295.192 91.798,300.379 98.649,303.200 100.663 C 305.652 102.414,305.580 102.274,302.615 99.531 C 300.754 97.809,298.328 94.780,297.225 92.800 C 296.122 90.820,295.215 89.609,295.210 90.110 M338.348 94.096 C 337.731 95.249,335.600 97.639,333.613 99.407 C 331.626 101.175,330.773 102.219,331.718 101.726 C 333.620 100.736,340.000 93.772,340.000 92.687 C 340.000 91.507,339.511 91.924,338.348 94.096 M60.000 96.250 C 60.000 96.388,61.170 97.558,62.600 98.850 L 65.200 101.200 62.850 98.600 C 60.660 96.176,60.000 95.632,60.000 96.250 M96.350 98.600 L 94.000 101.200 96.600 98.850 C 98.030 97.558,99.200 96.388,99.200 96.250 C 99.200 95.632,98.540 96.176,96.350 98.600 " stroke="none" fill="#850400" fill-rule="evenodd"></path><path id="path3" d="M66.711 61.187 C 64.902 62.271,62.415 64.518,61.185 66.179 L 58.948 69.200 62.474 65.720 C 64.413 63.806,66.990 61.726,68.200 61.099 C 69.410 60.472,70.400 59.788,70.400 59.579 C 70.400 59.001,70.241 59.071,66.711 61.187 M88.800 59.470 C 88.800 59.674,90.150 60.682,91.800 61.708 C 93.450 62.734,95.340 63.913,96.000 64.328 C 96.981 64.946,97.026 64.870,96.246 63.915 C 95.236 62.678,88.800 58.836,88.800 59.470 M328.000 60.039 C 330.775 61.923,332.355 62.471,330.400 60.871 C 329.300 59.972,328.040 59.233,327.600 59.230 C 327.160 59.227,327.340 59.591,328.000 60.039 M301.536 64.187 C 298.792 66.931,296.006 71.069,296.006 72.400 C 296.006 72.840,296.760 71.940,297.681 70.400 C 298.602 68.860,300.654 66.250,302.241 64.600 C 305.764 60.935,305.148 60.575,301.536 64.187 M335.166 65.400 C 336.652 67.270,338.012 68.800,338.188 68.800 C 338.754 68.800,335.325 64.298,333.869 63.129 C 333.096 62.508,333.680 63.530,335.166 65.400 M100.057 70.000 C 100.057 70.440,100.571 71.700,101.200 72.800 C 101.829 73.900,102.343 74.440,102.343 74.000 C 102.343 73.560,101.829 72.300,101.200 71.200 C 100.571 70.100,100.057 69.560,100.057 70.000 M56.892 73.679 C 56.402 75.087,56.024 76.815,56.054 77.519 C 56.083 78.224,56.607 77.194,57.219 75.232 C 58.499 71.124,58.230 69.843,56.892 73.679 M294.913 75.368 C 294.643 76.376,294.453 77.920,294.491 78.800 C 294.529 79.680,294.890 78.996,295.293 77.279 C 296.073 73.955,295.740 72.281,294.913 75.368 M294.454 84.481 C 294.399 86.186,295.988 91.482,296.422 91.041 C 296.552 90.908,296.175 89.000,295.583 86.800 C 294.992 84.600,294.484 83.556,294.454 84.481 M56.082 85.450 C 55.953 88.364,59.652 95.360,62.937 98.414 L 65.933 101.200 62.889 97.712 C 59.834 94.211,57.877 90.471,56.762 86.000 C 56.266 84.009,56.150 83.915,56.082 85.450 M100.934 90.359 C 100.466 91.702,100.253 92.800,100.461 92.800 C 101.001 92.800,102.511 88.644,102.115 88.248 C 101.933 88.067,101.402 89.017,100.934 90.359 M338.956 91.610 C 338.225 93.145,337.791 94.400,337.992 94.400 C 338.540 94.400,340.968 89.502,340.602 89.136 C 340.429 88.962,339.688 90.076,338.956 91.610 M96.400 97.099 C 94.640 98.956,92.300 101.115,91.200 101.898 C 89.246 103.290,89.255 103.291,91.600 101.957 C 94.506 100.305,98.260 96.912,99.297 95.000 C 100.366 93.029,100.023 93.278,96.400 97.099 M299.108 95.871 C 299.998 97.120,301.358 98.650,302.131 99.271 C 302.904 99.892,302.320 98.870,300.834 97.000 C 297.782 93.160,296.650 92.419,299.108 95.871 M334.357 98.200 L 331.600 101.200 334.600 98.443 C 336.250 96.927,337.600 95.577,337.600 95.443 C 337.600 94.832,336.923 95.408,334.357 98.200 M74.553 104.920 C 75.569 105.206,77.840 105.441,79.600 105.441 C 81.360 105.441,83.631 105.206,84.647 104.920 C 85.663 104.634,83.392 104.400,79.600 104.400 C 75.808 104.400,73.537 104.634,74.553 104.920 M313.434 104.944 C 315.167 105.633,320.603 105.607,323.146 104.897 C 324.231 104.594,322.208 104.364,318.580 104.377 C 314.998 104.389,312.682 104.645,313.434 104.944 " stroke="none" fill="#c80700" fill-rule="evenodd"></path><path id="path4" d="M74.669 58.396 C 63.836 60.662,54.794 73.169,56.374 83.702 C 59.908 107.273,90.233 112.545,100.532 91.379 C 108.860 74.263,93.354 54.489,74.669 58.396 M312.868 58.521 C 300.583 61.392,292.475 74.690,295.625 86.800 C 302.599 113.610,341.111 108.871,341.129 81.200 C 341.139 66.112,327.437 55.116,312.868 58.521 " stroke="none" fill="#ff0900" fill-rule="evenodd"></path><path id="path5" d="M139.043 325.397 C 143.576 325.540,150.776 325.539,155.043 325.396 C 159.309 325.252,155.600 325.135,146.800 325.136 C 138.000 325.137,134.509 325.254,139.043 325.397 M238.800 325.351 C 252.607 325.925,265.420 325.949,265.078 325.400 C 264.873 325.070,257.617 324.872,248.953 324.959 C 240.289 325.046,235.720 325.223,238.800 325.351 M129.933 341.200 C 129.934 349.560,130.053 352.871,130.197 348.558 C 130.341 344.246,130.340 337.406,130.196 333.358 C 130.051 329.311,129.933 332.840,129.933 341.200 M162.705 348.400 C 162.707 353.680,162.836 355.736,162.993 352.969 C 163.150 350.201,163.149 345.881,162.990 343.369 C 162.832 340.856,162.704 343.120,162.705 348.400 M233.099 349.200 C 233.101 354.040,233.233 355.917,233.392 353.371 C 233.551 350.825,233.550 346.865,233.389 344.571 C 233.228 342.277,233.097 344.360,233.099 349.200 " stroke="none" fill="#3d3e3f" fill-rule="evenodd"></path><path id="path6" d="M130.756 326.627 C 130.539 327.192,130.469 334.122,130.601 342.027 L 130.839 356.400 131.020 341.453 L 131.200 326.506 133.400 326.173 L 135.600 325.840 133.375 325.720 C 132.151 325.654,130.972 326.062,130.756 326.627 M146.400 356.800 L 130.800 357.252 146.153 357.426 C 155.717 357.534,161.692 357.298,162.000 356.800 C 162.272 356.360,162.383 356.078,162.247 356.174 C 162.111 356.269,154.980 356.551,146.400 356.800 M241.800 357.396 C 246.090 357.540,253.110 357.540,257.400 357.396 C 261.690 357.253,258.180 357.135,249.600 357.135 C 241.020 357.135,237.510 357.253,241.800 357.396 " stroke="none" fill="#8d8e92" fill-rule="evenodd"></path><path id="path7" d="M139.600 326.145 C 151.317 326.722,163.020 326.750,162.679 326.200 C 162.473 325.870,156.117 325.669,148.553 325.754 C 140.989 325.839,136.960 326.015,139.600 326.145 M233.322 326.200 C 233.117 326.530,237.505 326.706,243.074 326.592 C 261.758 326.207,263.712 325.915,248.647 325.757 C 240.423 325.671,233.527 325.870,233.322 326.200 M161.596 347.363 C 161.378 352.513,161.483 356.442,161.828 356.095 C 162.174 355.747,162.352 351.534,162.224 346.732 L 161.992 338.000 161.596 347.363 M233.596 347.837 L 233.992 357.200 234.224 348.468 C 234.352 343.666,234.174 339.453,233.828 339.105 C 233.483 338.758,233.378 342.687,233.596 347.837 " stroke="none" fill="#b1b2b7" fill-rule="evenodd"></path><path id="path8" d="M131.200 341.618 L 131.200 356.835 146.200 356.618 L 161.200 356.400 161.429 347.616 C 161.604 340.913,161.935 338.676,162.829 338.176 C 164.561 337.207,164.480 327.555,162.735 326.886 C 162.039 326.619,154.659 326.400,146.335 326.400 L 131.200 326.400 131.200 341.618 M233.333 326.933 C 232.482 327.785,232.717 338.254,233.600 338.800 C 234.055 339.081,234.400 343.081,234.400 348.065 L 234.400 356.835 249.400 356.618 L 264.400 356.400 264.618 341.400 L 264.835 326.400 249.351 326.400 C 240.835 326.400,233.627 326.640,233.333 326.933 " stroke="none" fill="#e2e3ea" fill-rule="evenodd"></path><path id="path9" d="M265.135 341.600 C 265.135 350.180,265.253 353.690,265.396 349.400 C 265.540 345.110,265.540 338.090,265.396 333.800 C 265.253 329.510,265.135 333.020,265.135 341.600 " stroke="none" fill="#69696d" fill-rule="evenodd"></path></g></svg>